<svg width="80" height="24" viewBox="0 0 80 24" fill="none" xmlns="http://www.w3.org/2000/svg">
<g clip-path="url(#clip0_12_2)">
<path d="M9.975 18.4647V23.5549H11.5148V21.8686H16.1825V20.1509H11.5148V18.4647L9.975 18.4647ZM9.975 9.97643L13.5555 10.9632L10.0057 12.4686V13.0603L13.5528 14.5392L9.975 15.5461V17.3826L16.1826 15.4391V13.9338L13.1864 12.7658L16.1825 11.5749V10.0694L9.975 8.1553L9.975 9.97643ZM16.3395 3.71672C16.3395 1.72632 14.9811 0.307445 13.0788 0.307445C11.1766 0.307445 9.81812 1.72632 9.81812 3.71672C9.81812 5.71227 11.1816 7.13621 13.0788 7.13621C14.9761 7.13621 16.3396 5.71227 16.3396 3.71672H16.3395ZM14.7482 3.71672C14.7482 4.66161 14.0453 5.3557 13.0789 5.3557C12.1126 5.3557 11.4096 4.66153 11.4096 3.71672C11.4096 2.77191 12.1075 2.08804 13.079 2.08804C14.0505 2.08804 14.7483 2.77193 14.7483 3.71672H14.7482Z" fill="black"/>
<path d="M4.77201 20.9998L0.543333 18.7117H0.156883L0.156883 23.3693H1.74946L1.74946 21.2201L6.00865 23.52H6.36442V18.6053H4.77201V20.9998ZM4.88107 16.0742H3.95183V14.0354H2.54908V16.0742H1.63517L1.63517 13.8049H0.156883L0.156883 17.7769H6.36442L6.36442 13.7298H4.88109L4.88107 16.0742ZM6.3644 9.41139V7.50266L4.1068 8.73521C3.73958 8.12199 3.11545 7.74989 2.35368 7.74989C1.05603 7.74989 0.156823 8.71994 0.156823 10.0582L0.156823 12.7487H6.36442V11.0386H4.46511V10.4185L6.3644 9.41139ZM1.67648 11.0386L1.67648 10.2574C1.67648 9.77932 1.96053 9.50416 2.34849 9.50416C2.73646 9.50416 3.0244 9.77932 3.0244 10.2574V11.0386H1.67648ZM6.52131 3.71232C6.52131 1.72192 5.16293 0.303046 3.26065 0.303046C1.35838 0.303046 0 1.72182 0 3.71224C0 5.70779 1.36353 7.13179 3.26073 7.13179C5.15794 7.13179 6.52147 5.70777 6.52147 3.71222L6.52131 3.71232ZM4.93005 3.71232C4.93005 4.65719 4.22708 5.3513 3.26075 5.3513C2.29443 5.3513 1.59146 4.65721 1.59146 3.71232C1.59146 2.76743 2.28936 2.08364 3.26085 2.08364C4.23235 2.08364 4.93015 2.76753 4.93015 3.71232H4.93005Z" fill="black"/>
<path d="M19.484 0.269165V5.5193H22.9184V23.4367H29.1597V0.269165H19.484Z" fill="black"/>
<path d="M42.9447 0C49.4165 0 54.663 5.24649 54.663 11.7183C54.663 18.1902 49.4165 23.4367 42.9447 23.4367C36.4728 23.4367 31.2263 18.1902 31.2263 11.7183C31.2263 5.24647 36.4728 0 42.9447 0Z" fill="black"/>
<path d="M68.2817 0C74.7536 0 80 5.24649 80 11.7183C80 18.1902 74.7535 23.4367 68.2817 23.4367C61.8098 23.4367 56.5634 18.1902 56.5634 11.7183C56.5634 5.24647 61.8098 0 68.2817 0Z" fill="black"/>
</g>
<defs>
<clipPath id="clip0_12_2">
<rect width="80" height="23.5549" fill="white"/>
</clipPath>
</defs>
</svg>
