<svg width="24" height="24" viewBox="0 0 24 24" fill="none" xmlns="http://www.w3.org/2000/svg">
<path d="M15.6002 14C16.9257 14 18.0002 12.9255 18.0002 11.6C18.0002 10.2745 16.9257 9.20001 15.6002 9.20001C14.2747 9.20001 13.2002 10.2745 13.2002 11.6C13.2002 12.9255 14.2747 14 15.6002 14Z" fill="black"/>
<path d="M12 24C18.628 24 24 18.628 24 12C24 5.373 18.628 0 12 0C5.373 0 0 5.373 0 12C0 18.628 5.373 24 12 24ZM12 2.512C16.599 2.512 20.327 5.72 20.327 9.678C20.327 11.656 19.395 13.448 17.888 14.744C18.534 15.484 18.792 16.33 18.48 16.986C18.032 17.926 16.574 18.15 15.096 17.562V20.5C15.096 21.045 14.629 21.488 14.053 21.488H14.02C13.54 21.488 13.14 21.178 13.018 20.76C12.9522 20.9734 12.819 21.1598 12.6384 21.291C12.4577 21.4223 12.2393 21.4914 12.016 21.488H11.983C11.503 21.488 11.103 21.178 10.982 20.76C10.9162 20.9734 10.783 21.1598 10.6024 21.291C10.4217 21.4223 10.2033 21.4914 9.98 21.488H9.947C9.371 21.488 8.904 21.045 8.904 20.5V17.562C7.426 18.15 5.967 17.926 5.52 16.986C5.207 16.33 5.466 15.483 6.112 14.744C4.605 13.448 3.674 11.656 3.674 9.678C3.674 5.72 7.4 2.512 12 2.512V2.512Z" fill="black"/>
<path d="M10.7 15.764C10.5 16.044 10.52 16.471 10.743 16.714L10.816 16.791C10.8389 16.8152 10.864 16.8373 10.891 16.857C11.112 17.023 11.409 16.974 11.588 16.724L11.966 16.196L12.305 16.673C12.463 16.896 12.71 16.968 12.929 16.883C13.0114 16.8508 13.0853 16.8002 13.145 16.735C13.393 16.467 13.421 16.002 13.207 15.701L12.464 14.653C12.3828 14.5336 12.2584 14.4504 12.117 14.421C12.104 14.416 12.091 14.416 12.077 14.411C11.9758 14.3784 11.8664 14.3827 11.768 14.423C11.6698 14.4621 11.5851 14.5288 11.524 14.615L10.7 15.765V15.764ZM8.18701 10.847C8.26087 10.9208 8.30237 11.021 8.30237 11.1255C8.30237 11.2299 8.26087 11.3301 8.18701 11.404C8.11314 11.4778 8.01297 11.5193 7.90851 11.5193C7.80405 11.5193 7.70387 11.4778 7.63001 11.404C7.55614 11.3301 7.51465 11.2299 7.51465 11.1255C7.51465 11.021 7.55614 10.9208 7.63001 10.847C7.70387 10.7731 7.80405 10.7316 7.90851 10.7316C8.01297 10.7316 8.11314 10.7731 8.18701 10.847V10.847ZM14.893 10.847C14.9312 10.8832 14.9618 10.9267 14.9829 10.9749C15.004 11.0231 15.0152 11.075 15.0159 11.1277C15.0166 11.1803 15.0068 11.2325 14.987 11.2813C14.9672 11.33 14.9378 11.3743 14.9006 11.4116C14.8634 11.4488 14.8191 11.4781 14.7703 11.498C14.7216 11.5178 14.6693 11.5276 14.6167 11.5269C14.5641 11.5262 14.5121 11.515 14.4639 11.4939C14.4157 11.4727 14.3722 11.4422 14.336 11.404C14.2654 11.3295 14.2266 11.2303 14.228 11.1277C14.2294 11.025 14.2708 10.9269 14.3434 10.8544C14.416 10.7818 14.514 10.7404 14.6167 10.739C14.7194 10.7376 14.8185 10.7764 14.893 10.847V10.847Z" fill="black"/>
<path d="M8.4 14C9.72548 14 10.8 12.9255 10.8 11.6C10.8 10.2745 9.72548 9.20001 8.4 9.20001C7.07452 9.20001 6 10.2745 6 11.6C6 12.9255 7.07452 14 8.4 14Z" fill="black"/>
</svg>
