<svg width="261" height="395" viewBox="0 0 261 395" fill="none" xmlns="http://www.w3.org/2000/svg">
<g clip-path="url(#clip0_32_93)">
<path d="M260.962 264.914C260.962 227.419 240.398 195.328 215.228 165.646C188.019 133.56 204.182 107.685 220.668 95.9685C200.052 95.9685 173.09 125.475 176.475 153.969C180.021 183.816 217.792 199.319 227.833 254.054C237.874 308.788 191.003 363.729 132.326 363.729C73.6493 363.729 36.0644 321.524 32.4412 273.464C28.818 225.404 55.5454 198.967 81.7361 176.162C120.708 142.228 129.871 105.53 129.871 105.53C129.871 105.53 153.603 136.133 118.779 167.678C172.565 158.522 176.557 106.247 140.774 68.3156C104.991 30.3844 141.839 6.2808 148.36 0C118.652 2.66903 95.2968 35.111 103.262 62.8661C111.227 90.6213 98.257 110.971 93.5932 117.951C86.7904 92.1581 62.0769 83.5895 48.5041 82.343C72.3422 101.529 76.3205 125.344 58.7203 151.42C51.8196 161.644 35.6851 178.271 24.386 193.329C-2.59957 229.29 -0.349072 267.694 0.371402 276.359C5.87363 342.529 61.7781 395 130.129 395C148.533 395.023 166.735 391.233 183.549 383.876C190.039 381.207 196.231 377.886 202.026 373.964C237.863 350.89 260.962 311.728 260.962 264.914Z" fill="url(#paint0_linear_32_93)"/>
</g>
<defs>
<linearGradient id="paint0_linear_32_93" x1="129.86" y1="-1.11859e-06" x2="86.9212" y2="390.276" gradientUnits="userSpaceOnUse">
<stop stop-color="#F93822"/>
<stop offset="1" stop-color="#E31C79"/>
</linearGradient>
<clipPath id="clip0_32_93">
<rect width="261" height="395" fill="white"/>
</clipPath>
</defs>
</svg>
