<svg width="22" height="40" viewBox="0 0 22 40" fill="none" xmlns="http://www.w3.org/2000/svg">
<path d="M11 0.195068C4.93522 0.195068 0 5.13037 0 11.1952V28.8013C0 34.8686 4.93522 39.8015 11 39.8015C17.0648 39.8015 22 34.8662 22 28.8013V11.1952C22.0049 5.13037 17.0689 0.195068 11 0.195068ZM17.6008 28.8013C17.6106 29.6744 17.447 30.5407 17.1196 31.3502C16.7922 32.1596 16.3076 32.8961 15.6936 33.5169C15.0797 34.1378 14.3487 34.6307 13.5429 34.9671C12.7372 35.3034 11.8727 35.4766 10.9996 35.4766C10.1265 35.4766 9.26199 35.3034 8.45626 34.9671C7.65052 34.6307 6.91952 34.1378 6.30557 33.5169C5.69162 32.8961 5.20693 32.1596 4.87955 31.3502C4.55218 30.5407 4.38862 29.6744 4.39836 28.8013V11.1952C4.38862 10.3222 4.55218 9.4558 4.87955 8.64635C5.20693 7.8369 5.69162 7.10043 6.30557 6.47959C6.91952 5.85875 7.65052 5.36587 8.45626 5.02948C9.26199 4.69309 10.1265 4.51988 10.9996 4.51988C11.8727 4.51988 12.7372 4.69309 13.5429 5.02948C14.3487 5.36587 15.0797 5.85875 15.6936 6.47959C16.3076 7.10043 16.7922 7.8369 17.1196 8.64635C17.447 9.4558 17.6106 10.3222 17.6008 11.1952V28.8013Z" fill="black"/>
<path d="M13.2026 17.7986H8.80176V22.1995H13.2026V17.7986Z" fill="black"/>
</svg>
