<svg width="30" height="21" viewBox="0 0 30 21" fill="none" xmlns="http://www.w3.org/2000/svg">
<path d="M15.0186 21.0007H14.9886C14.8957 21.0007 5.59886 20.9827 3.25329 20.3457C1.96349 19.9982 0.956213 18.9904 0.609476 17.7004C0.187692 15.3209 -0.0159862 12.9079 0.000978413 10.4913C-0.00991888 8.07086 0.19927 5.6544 0.625962 3.2718C0.982229 1.98063 1.98508 0.968125 3.27278 0.599505C5.55389 0 14.5944 0 14.9781 0H15.0096C15.104 0 24.4248 0.0179851 26.7464 0.654959C28.0335 1.00418 29.0387 2.00999 29.3872 3.29728C29.8224 5.68562 30.0267 8.11031 29.9972 10.5378C30.0077 12.9553 29.798 15.3688 29.3707 17.7483C29.0195 19.0367 28.0116 20.0424 26.7224 20.3907C24.4443 20.9947 15.4023 21.0007 15.0186 21.0007ZM12.0211 6.00254L12.0136 14.9951L19.8251 10.4988L12.0211 6.00254Z" fill="black"/>
</svg>
