<svg width="354" height="18" viewBox="0 0 354 18" fill="none" xmlns="http://www.w3.org/2000/svg">
<rect width="354" height="18" fill="white"/>
<rect width="2" height="18" fill="black"/>
<rect x="3" width="1" height="18" fill="black"/>
<rect x="6" width="1" height="18" fill="black"/>
<rect x="11" width="3" height="18" fill="black"/>
<rect x="15" width="3" height="18" fill="black"/>
<rect x="19" width="2" height="18" fill="black"/>
<rect x="22" width="1" height="18" fill="black"/>
<rect x="25" width="1" height="18" fill="black"/>
<rect x="28" width="4" height="18" fill="black"/>
<rect x="33" width="1" height="18" fill="black"/>
<rect x="36" width="1" height="18" fill="black"/>
<rect x="38" width="2" height="18" fill="black"/>
<rect x="44" width="4" height="18" fill="black"/>
<rect x="49" width="1" height="18" fill="black"/>
<rect x="52" width="1" height="18" fill="black"/>
<rect x="55" width="1" height="18" fill="black"/>
<rect x="60" width="2" height="18" fill="black"/>
<rect x="63" width="1" height="18" fill="black"/>
<rect x="66" width="2" height="18" fill="black"/>
<rect x="72" width="1" height="18" fill="black"/>
<rect x="74" width="1" height="18" fill="black"/>
<rect x="77" width="2" height="18" fill="black"/>
<rect x="80" width="2" height="18" fill="black"/>
<rect x="84" width="2" height="18" fill="black"/>
<rect x="90" width="3" height="18" fill="black"/>
<rect x="94" width="2" height="18" fill="black"/>
<rect x="88" width="1" height="18" fill="black"/>
<rect x="99" width="2" height="18" fill="black"/>
<rect x="102" width="2" height="18" fill="black"/>
<rect x="106" width="2" height="18" fill="black"/>
<rect x="110" width="2" height="18" fill="black"/>
<rect x="113" width="3" height="18" fill="black"/>
<rect x="117" width="1" height="18" fill="black"/>
<rect x="121" width="1" height="18" fill="black"/>
<rect x="126" width="2" height="18" fill="black"/>
<rect x="129" width="1" height="18" fill="black"/>
<rect x="132" width="2" height="18" fill="black"/>
<rect x="138" width="1" height="18" fill="black"/>
<rect x="140" width="1" height="18" fill="black"/>
<rect x="143" width="1" height="18" fill="black"/>
<rect x="146" width="2" height="18" fill="black"/>
<rect x="149" width="1" height="18" fill="black"/>
<rect x="154" width="1" height="18" fill="black"/>
<rect x="157" width="2" height="18" fill="black"/>
<rect x="163" width="1" height="18" fill="black"/>
<rect x="165" width="2" height="18" fill="black"/>
<rect x="168" width="2" height="18" fill="black"/>
<rect x="172" width="2" height="18" fill="black"/>
<rect x="176" width="1" height="18" fill="black"/>
<rect x="179" width="2" height="18" fill="black"/>
<rect x="182" width="3" height="18" fill="black"/>
<rect x="187" width="2" height="18" fill="black"/>
<rect x="190" width="2" height="18" fill="black"/>
<rect x="194" width="2" height="18" fill="black"/>
<rect x="198" width="1" height="18" fill="black"/>
<rect x="200" width="2" height="18" fill="black"/>
<rect x="205" width="1" height="18" fill="black"/>
<rect x="209" width="1" height="18" fill="black"/>
<rect x="214" width="2" height="18" fill="black"/>
<rect x="220" width="1" height="18" fill="black"/>
<rect x="222" width="4" height="18" fill="black"/>
<rect x="228" width="1" height="18" fill="black"/>
<rect x="231" width="1" height="18" fill="black"/>
<rect x="236" width="1" height="18" fill="black"/>
<rect x="238" width="2" height="18" fill="black"/>
<rect x="242" width="1" height="18" fill="black"/>
<rect x="246" width="4" height="18" fill="black"/>
<rect x="251" width="1" height="18" fill="black"/>
<rect x="253" width="2" height="18" fill="black"/>
<rect x="259" width="1" height="18" fill="black"/>
<rect x="261" width="1" height="18" fill="black"/>
<rect x="264" width="2" height="18" fill="black"/>
<rect x="270" width="1" height="18" fill="black"/>
<rect x="272" width="1" height="18" fill="black"/>
<rect x="275" width="1" height="18" fill="black"/>
<rect x="277" width="2" height="18" fill="black"/>
<rect x="281" width="1" height="18" fill="black"/>
<rect x="286" width="1" height="18" fill="black"/>
<rect x="291" width="1" height="18" fill="black"/>
<rect x="293" width="2" height="18" fill="black"/>
<rect x="297" width="1" height="18" fill="black"/>
<rect x="300" width="4" height="18" fill="black"/>
<rect x="305" width="1" height="18" fill="black"/>
<rect x="308" width="1" height="18" fill="black"/>
<rect x="310" width="2" height="18" fill="black"/>
<rect x="314" width="1" height="18" fill="black"/>
<rect x="319" width="1" height="18" fill="black"/>
<rect x="324" width="1" height="18" fill="black"/>
<rect x="327" width="2" height="18" fill="black"/>
<rect x="330" width="1" height="18" fill="black"/>
<rect x="333" width="2" height="18" fill="black"/>
<rect x="338" width="1" height="18" fill="black"/>
<rect x="341" width="2" height="18" fill="black"/>
<rect x="346" width="3" height="18" fill="black"/>
<rect x="350" width="1" height="18" fill="black"/>
<rect x="352" width="2" height="18" fill="black"/>
<rect x="217" width="1" height="18" fill="black"/>
</svg>
