<svg width="60" height="60" viewBox="0 0 60 60" fill="none" xmlns="http://www.w3.org/2000/svg">
<path opacity="0.8" d="M60 30C60 46.572 46.572 60 30 60C13.428 60 0 46.572 0 30C0 13.428 13.428 0 30 0C46.572 0 60 13.428 60 30Z" fill="#FFF03E"/>
<path d="M26.898 26.2399C26.574 26.4199 26.301 26.5679 26.042 26.7249C25.999 26.7549 25.97 26.8289 25.955 26.8889C25.711 27.7089 25.473 28.5299 25.222 29.3509C25.078 29.8359 24.912 30.3129 24.762 30.7979C24.689 31.0369 24.66 31.2829 24.567 31.5069C24.229 32.2899 23.301 32.5739 22.603 32.1259C22.157 31.8419 21.883 31.0959 22.049 30.5219C22.502 28.9109 22.949 27.2989 23.423 25.7029C23.61 25.0759 24.013 24.5919 24.574 24.2779C25.768 23.6139 26.963 22.9499 28.178 22.3159C28.531 22.1299 28.934 21.9809 29.323 21.9359C30.747 21.7789 31.898 23.0849 31.697 24.5909C31.467 26.3149 31.229 28.0379 30.992 29.7689C30.905 30.4029 30.79 31.0369 30.718 31.6789C30.661 32.1789 30.798 32.6109 31.193 32.9459C31.898 33.5579 32.582 34.1919 33.279 34.8109C33.848 35.3109 34.172 35.9379 34.229 36.7059L34.509 40.5179C34.575 41.3979 34.647 42.2779 34.689 43.1579C34.747 44.3229 33.862 45.1429 32.747 44.9789C32.064 44.8749 31.452 44.2259 31.395 43.5089C31.279 42.0249 31.179 40.5479 31.071 39.0629C31.035 38.5559 30.999 38.0409 30.97 37.5339C30.963 37.3629 30.89 37.2359 30.761 37.1169C29.639 36.1239 28.524 35.1249 27.409 34.1329C26.739 33.5359 26.301 32.8129 26.265 31.8799C26.25 31.5139 26.272 31.1409 26.315 30.7759C26.395 30.0739 26.509 29.3729 26.603 28.6719C26.703 27.9559 26.79 27.2319 26.883 26.5159C26.883 26.4489 26.883 26.3819 26.898 26.2399V26.2399Z" fill="black"/>
<path d="M26.67 33.462C26.962 33.808 27.236 34.147 27.522 34.47C27.949 34.96 28.382 35.432 28.82 35.913C28.912 36.015 28.948 36.103 28.905 36.276C28.436 38.128 27.979 39.98 27.522 41.824C27.376 42.424 27.218 43.023 27.078 43.63C26.834 44.646 26.042 45.23 25.304 44.914C24.506 44.575 24.128 43.559 24.39 42.51C24.994 40.114 25.585 37.71 26.182 35.306L26.602 33.611C26.62 33.556 26.645 33.509 26.669 33.461L26.67 33.462ZM27.77 17.877C27.77 16.287 29.044 15.007 30.638 15C32.24 14.992 33.538 16.279 33.538 17.877C33.538 19.475 32.256 20.761 30.654 20.769C29.052 20.769 27.769 19.491 27.769 17.877H27.77ZM32.86 25.385C33.339 25.785 33.76 26.142 34.191 26.499C35.306 27.431 36.421 28.363 37.529 29.304C38.302 29.957 38.374 31.168 37.657 31.847C37.218 32.265 36.717 32.447 36.111 32.187C35.689 32.004 35.378 31.699 35.036 31.42C34.199 30.732 33.371 30.027 32.542 29.338C32.415 29.234 32.367 29.129 32.391 28.938C32.534 27.867 32.67 26.787 32.805 25.707C32.813 25.611 32.837 25.524 32.861 25.385H32.86Z" fill="black"/>
</svg>
